<?xml version="1.0" encoding="utf-8"?><!-- Generator: Adobe Illustrator 17.0.0, SVG Export Plug-In . SVG Version: 6.00 Build 0)  --><!DOCTYPE svg PUBLIC "-//W3C//DTD SVG 1.1//EN" "http://www.w3.org/Graphics/SVG/1.1/DTD/svg11.dtd"><svg xmlns="http://www.w3.org/2000/svg" xmlns:xlink="http://www.w3.org/1999/xlink" version="1.1" id="Layer_1" x="0px" y="0px" width="612px" height="296px" viewBox="0 0 612 296" enable-background="new 0 0 612 296" xml:space="preserve">
<g>
	<g>
		<path fill="#025095" d="M81.654,92.383v1.656H64.998v-1.652c2.232,0,3.349-0.55,3.349-1.652V48.76    c0-1.101-1.117-1.652-3.349-1.652V45.5h32.167c4.104,0,7.525,0.476,10.262,1.427c2.736,0.952,4.841,2.49,6.313,4.615    c1.472,2.125,2.208,4.882,2.208,8.27c0,5.083-1.607,8.761-4.823,11.035c-3.215,2.274-7.874,3.411-13.977,3.411H78.751v16.47    C78.751,91.832,79.719,92.383,81.654,92.383z M78.751,53.984v11.789h19.469c4.882,0,7.323-1.979,7.323-5.939    c0-3.899-2.441-5.85-7.323-5.85H78.751z"/>
		<path fill="#025095" d="M154.574,44.919c4.673,0,9.295,0.938,13.865,2.813c4.569,1.875,8.32,4.688,11.253,8.439    c2.932,3.751,4.398,8.261,4.398,13.53c0,5.329-1.467,9.869-4.398,13.62c-2.933,3.751-6.676,6.564-11.231,8.439    c-4.555,1.875-9.184,2.813-13.887,2.813c-3.483,0-6.959-0.529-10.427-1.585c-3.468-1.057-6.653-2.612-9.556-4.667    c-2.902-2.054-5.224-4.667-6.966-7.837s-2.612-6.765-2.612-10.784c0-5.269,1.474-9.779,4.421-13.53    c2.947-3.751,6.698-6.564,11.253-8.439C145.242,45.857,149.87,44.919,154.574,44.919z M154.574,53.404    c-3.245,0-6.363,0.649-9.355,1.945c-2.992,1.297-5.433,3.19-7.323,5.679c-1.891,2.489-2.835,5.373-2.835,8.652    s0.944,6.178,2.835,8.697c1.89,2.519,4.346,4.434,7.368,5.746s6.125,1.968,9.311,1.968c2.381,0,4.74-0.38,7.078-1.14    c2.337-0.76,4.428-1.833,6.274-3.219c1.846-1.387,3.327-3.101,4.443-5.143c1.117-2.042,1.675-4.345,1.675-6.908    s-0.551-4.859-1.652-6.886c-1.102-2.027-2.598-3.734-4.488-5.12c-1.891-1.386-3.982-2.444-6.274-3.175    C159.337,53.77,156.985,53.404,154.574,53.404z"/>
		<path fill="#025095" d="M244.239,96.048h-1.607c0-0.864-0.253-1.414-0.759-1.652c-0.506-0.239-1.295-0.357-2.366-0.357h-43.538    v-1.652c1.846,0,2.769-0.55,2.769-1.652V48.76c0-1.101-0.923-1.652-2.769-1.652V45.5h15.718v1.607    c-1.697,0-2.545,0.551-2.545,1.652v36.795h30.365c0.952,0,1.711-0.215,2.277-0.647c0.565-0.431,0.848-1.02,0.848-1.764h1.607    V96.048z"/>
		<path fill="#025095" d="M247.008,47.107V45.5h19.023v1.607c-1.548,0-2.322,0.462-2.322,1.384c0,0.417,0.417,1.266,1.25,2.545    c0.833,1.28,2.485,3.729,4.957,7.346c2.471,3.617,4.153,6.14,5.046,7.569l10.717-14.915c1.101-1.607,1.652-2.575,1.652-2.902    c0-0.685-0.833-1.027-2.5-1.027V45.5h16.031v1.607c-0.774,0-1.414,0.112-1.92,0.335c-0.507,0.223-1.057,0.663-1.652,1.317    c-0.596,0.655-1.414,1.727-2.456,3.215l-15.584,22.327v16.433c0,1.102,0.715,1.652,2.144,1.652v1.652h-14.468v-1.652    c1.279,0,1.92-0.55,1.92-1.652V74.302L251.206,49.34c-0.357-0.565-0.998-1.079-1.92-1.541    C248.363,47.338,247.604,47.107,247.008,47.107z"/>
		<path fill="#025095" d="M334.933,53.984v36.75c0,1.102,0.67,1.652,2.01,1.652v1.652h-14.066v-1.652    c0.416,0,0.796-0.141,1.139-0.424c0.342-0.282,0.514-0.692,0.514-1.228v-36.75h-15.094c-0.654,0-1.213,0.171-1.674,0.514    c-0.462,0.342-0.692,0.9-0.692,1.674h-1.652V43.178h1.652c0,0.774,0.23,1.355,0.692,1.741c0.461,0.387,1.02,0.581,1.674,0.581    h40.591c0.654,0,1.221-0.193,1.697-0.581c0.476-0.386,0.714-0.967,0.714-1.741h1.607v12.994h-1.607    c0-0.804-0.238-1.369-0.714-1.697c-0.477-0.327-1.043-0.491-1.697-0.491H334.933z"/>
		<path fill="#025095" d="M412.407,43.178v12.28h-1.652c0-1.34-1.161-2.01-3.482-2.01h-29.65V64.88h17.951    c1.339,0,2.313-0.215,2.925-0.647c0.609-0.431,0.915-1.287,0.915-2.567h1.652v14.468h-1.652c0-1.34-0.313-2.225-0.938-2.657    s-1.593-0.648-2.902-0.648h-17.951v12.727h30.543c0.952,0,1.712-0.215,2.277-0.647c0.565-0.431,0.849-1.02,0.849-1.764h1.652    v12.905h-1.652c0-0.864-0.253-1.414-0.759-1.652c-0.507-0.239-1.295-0.357-2.367-0.357h-42.6v-1.652    c0.446,0,0.833-0.134,1.161-0.402c0.327-0.268,0.491-0.685,0.491-1.25V48.76c0-0.536-0.156-0.945-0.47-1.228    c-0.313-0.283-0.707-0.424-1.183-0.424V45.5h41.707c2.321,0,3.482-0.774,3.482-2.322H412.407z"/>
		<path fill="#025095" d="M472.021,76.847l6.028,9.779l-0.715,0.714c-0.179-0.029-0.335-0.051-0.469-0.067    c-0.134-0.015-0.32-0.022-0.559-0.022c-0.179,0-1.638,0.692-4.376,2.077c-2.739,1.384-5.724,2.605-8.953,3.662    c-3.23,1.056-6.586,1.585-10.069,1.585c-3.93,0-7.629-0.529-11.097-1.585c-3.468-1.057-6.594-2.657-9.377-4.8    c-2.784-2.144-4.942-4.763-6.476-7.859c-1.533-3.096-2.299-6.638-2.299-10.627c0-3.989,0.766-7.524,2.299-10.605    s3.669-5.686,6.408-7.814c2.738-2.128,5.856-3.721,9.355-4.778c3.497-1.057,7.226-1.585,11.186-1.585    c4.733,0,9.764,0.759,15.093,2.277c1.519,0.447,2.962,0.945,4.332,1.496c1.369,0.551,2.083,0.826,2.144,0.826    c0.268,0,0.698-0.402,1.295-1.206l1.384,1.116l-7.145,11.119l-0.938-0.625c0-0.148-0.061-0.55-0.179-1.206    c-0.269-1.31-2.196-2.612-5.783-3.907s-6.988-1.942-10.203-1.942c-2.65,0-5.113,0.365-7.391,1.094    c-2.277,0.73-4.316,1.809-6.117,3.237c-1.802,1.429-3.2,3.193-4.197,5.292c-0.998,2.099-1.496,4.414-1.496,6.944    c0,3.424,0.863,6.393,2.59,8.909s4.063,4.436,7.011,5.76c2.947,1.325,6.146,1.987,9.601,1.987c2.471,0,5.149-0.372,8.038-1.117    c2.887-0.744,5.306-1.697,7.256-2.858c1.949-1.161,2.925-2.307,2.925-3.438c0-0.268-0.134-0.64-0.401-1.117L472.021,76.847z"/>
		<path fill="#025095" d="M505.601,64.478h29.472V48.76c0-1.101-0.67-1.652-2.01-1.652V45.5h14.066v1.607    c-0.477,0-0.871,0.156-1.184,0.469c-0.313,0.313-0.469,0.707-0.469,1.183v41.975c0,0.506,0.156,0.908,0.469,1.206    c0.313,0.298,0.707,0.446,1.184,0.446v1.652h-14.066v-1.652c1.34,0,2.01-0.55,2.01-1.652V73.364h-29.472v17.371    c0,0.506,0.156,0.908,0.469,1.206c0.313,0.298,0.707,0.446,1.184,0.446v1.652h-13.754v-1.652c0.477,0,0.878-0.134,1.206-0.402    c0.327-0.268,0.491-0.685,0.491-1.25V48.76c0-0.536-0.156-0.945-0.469-1.228c-0.313-0.283-0.723-0.424-1.229-0.424V45.5h13.754    v1.607c-0.477,0-0.871,0.156-1.184,0.469c-0.313,0.313-0.469,0.707-0.469,1.183V64.478z"/>
	</g>
	<g>
		<g>
			<path fill="#838280" d="M547.354,133.875h-485c4.283,1.19,5.777,3.081,6.227,4.625h-0.062v21.967     c-0.009,0.32-0.019,0.635-0.019,0.97v47.895c0,15.163,12.336,27.5,27.5,27.5h30v-3H96c-13.509,0-24.5-10.99-24.5-24.5V165h467     v44.333c0,13.51-10.99,24.5-24.5,24.5h-29.333v3H514c15.163,0,27.5-12.337,27.5-27.5v-48.895c0-0.68-0.033-1.311-0.082-1.921     v-19.782C542.459,133.925,547.354,133.875,547.354,133.875z"/>
			<g>
				<path fill="#262425" d="M138.903,238.041V224.44h9.834v1.604h-8.034v4.166h7.524v1.596h-7.524v4.629h8.35v1.605H138.903z"/>
				<path fill="#262425" d="M161.243,233.272l1.8,0.454c-0.377,1.479-1.056,2.605-2.036,3.382c-0.98,0.776-2.179,1.164-3.595,1.164      c-1.466,0-2.658-0.298-3.577-0.895c-0.918-0.598-1.617-1.462-2.097-2.594c-0.479-1.132-0.719-2.347-0.719-3.646      c0-1.416,0.271-2.652,0.812-3.706c0.542-1.055,1.312-1.855,2.311-2.403c0.999-0.547,2.098-0.821,3.298-0.821      c1.36,0,2.505,0.347,3.433,1.039c0.928,0.693,1.574,1.667,1.939,2.923l-1.772,0.417c-0.315-0.989-0.773-1.71-1.373-2.161      c-0.6-0.451-1.354-0.678-2.264-0.678c-1.045,0-1.919,0.251-2.621,0.752c-0.702,0.501-1.195,1.174-1.479,2.018      c-0.285,0.845-0.427,1.715-0.427,2.611c0,1.157,0.168,2.167,0.506,3.029c0.337,0.863,0.861,1.508,1.572,1.935      c0.711,0.427,1.481,0.64,2.31,0.64c1.008,0,1.861-0.29,2.561-0.872C160.522,235.279,160.996,234.417,161.243,233.272z"/>
				<path fill="#262425" d="M164.713,231.417c0-2.258,0.606-4.025,1.818-5.302c1.212-1.277,2.777-1.916,4.694-1.916      c1.255,0,2.387,0.3,3.396,0.899c1.008,0.601,1.777,1.437,2.305,2.51c0.529,1.073,0.793,2.29,0.793,3.65      c0,1.38-0.278,2.613-0.835,3.702s-1.345,1.912-2.366,2.473c-1.021,0.56-2.122,0.839-3.303,0.839      c-1.28,0-2.425-0.309-3.433-0.928c-1.008-0.618-1.772-1.462-2.292-2.532C164.973,233.742,164.713,232.61,164.713,231.417z       M166.568,231.444c0,1.64,0.441,2.931,1.322,3.874c0.882,0.942,1.987,1.414,3.317,1.414c1.354,0,2.469-0.476,3.344-1.429      c0.875-0.952,1.313-2.304,1.313-4.054c0-1.107-0.187-2.073-0.561-2.899c-0.375-0.825-0.922-1.466-1.643-1.92      c-0.72-0.455-1.529-0.683-2.426-0.683c-1.274,0-2.37,0.438-3.289,1.313C167.028,227.937,166.568,229.397,166.568,231.444z"/>
				<path fill="#262425" d="M179.965,238.041V224.44h1.8v11.995h6.698v1.605H179.965z"/>
				<path fill="#262425" d="M190.643,238.041V224.44h9.834v1.604h-8.034v4.166h7.524v1.596h-7.524v4.629h8.35v1.605H190.643z"/>
				<path fill="#262425" d="M218.262,233.272l1.8,0.454c-0.377,1.479-1.056,2.605-2.036,3.382c-0.98,0.776-2.179,1.164-3.595,1.164      c-1.466,0-2.658-0.298-3.577-0.895c-0.918-0.598-1.617-1.462-2.097-2.594c-0.479-1.132-0.719-2.347-0.719-3.646      c0-1.416,0.271-2.652,0.812-3.706c0.542-1.055,1.312-1.855,2.311-2.403c0.999-0.547,2.098-0.821,3.298-0.821      c1.36,0,2.505,0.347,3.433,1.039c0.928,0.693,1.574,1.667,1.939,2.923l-1.772,0.417c-0.315-0.989-0.773-1.71-1.373-2.161      c-0.6-0.451-1.354-0.678-2.264-0.678c-1.045,0-1.919,0.251-2.621,0.752c-0.702,0.501-1.195,1.174-1.479,2.018      c-0.285,0.845-0.427,1.715-0.427,2.611c0,1.157,0.168,2.167,0.506,3.029c0.337,0.863,0.861,1.508,1.572,1.935      c0.711,0.427,1.481,0.64,2.31,0.64c1.008,0,1.861-0.29,2.561-0.872C217.541,235.279,218.014,234.417,218.262,233.272z"/>
				<path fill="#262425" d="M222.316,238.041V224.44h9.834v1.604h-8.034v4.166h7.524v1.596h-7.524v4.629h8.35v1.605H222.316z"/>
				<path fill="#262425" d="M234.933,238.041V224.44h1.846l7.144,10.678V224.44h1.726v13.601h-1.846l-7.144-10.688v10.688H234.933z"/>
				<path fill="#262425" d="M252.133,238.041v-11.996h-4.481v-1.604h10.78v1.604h-4.5v11.996H252.133z"/>
				<path fill="#262425" d="M260.307,238.041V224.44h6.03c1.212,0,2.134,0.122,2.765,0.366c0.631,0.244,1.135,0.676,1.512,1.294      c0.377,0.619,0.566,1.303,0.566,2.051c0,0.965-0.313,1.778-0.937,2.439c-0.625,0.662-1.59,1.083-2.895,1.262      c0.476,0.229,0.838,0.455,1.085,0.678c0.525,0.482,1.023,1.085,1.494,1.809l2.366,3.702h-2.264l-1.8-2.83      c-0.526-0.816-0.959-1.44-1.299-1.874c-0.34-0.433-0.645-0.735-0.914-0.909c-0.27-0.173-0.543-0.293-0.821-0.361      c-0.204-0.043-0.538-0.065-1.002-0.065h-2.087v6.04H260.307z M262.106,230.442h3.869c0.822,0,1.466-0.085,1.93-0.255      c0.464-0.17,0.816-0.442,1.058-0.816s0.362-0.78,0.362-1.22c0-0.644-0.233-1.172-0.701-1.587      c-0.467-0.414-1.205-0.621-2.212-0.621h-4.305V230.442z"/>
				<path fill="#262425" d="M272.506,238.041l5.223-13.601h1.939l5.566,13.601h-2.05l-1.586-4.119h-5.687l-1.494,4.119H272.506z       M276.431,232.456h4.611l-1.419-3.767c-0.433-1.145-0.755-2.084-0.965-2.82c-0.173,0.872-0.417,1.738-0.733,2.598      L276.431,232.456z"/>
				<path fill="#262425" d="M286.599,238.041V224.44h1.8v11.995h6.698v1.605H286.599z"/>
				<path fill="#262425" d="M297.277,238.041V224.44h9.834v1.604h-8.035v4.166h7.524v1.596h-7.524v4.629h8.349v1.605H297.277z"/>
				<path fill="#262425" d="M315.191,238.041V224.44h5.13c0.903,0,1.593,0.043,2.069,0.13c0.668,0.111,1.228,0.323,1.679,0.636      c0.452,0.312,0.815,0.75,1.091,1.313c0.274,0.563,0.413,1.182,0.413,1.855c0,1.156-0.368,2.135-1.104,2.937      c-0.736,0.801-2.065,1.201-3.989,1.201h-3.488v5.529H315.191z M316.991,230.906h3.516c1.163,0,1.989-0.216,2.478-0.649      c0.488-0.433,0.733-1.042,0.733-1.827c0-0.569-0.145-1.057-0.432-1.461c-0.288-0.405-0.667-0.673-1.137-0.803      c-0.303-0.08-0.863-0.121-1.68-0.121h-3.479V230.906z"/>
				<path fill="#262425" d="M327.316,231.417c0-2.258,0.606-4.025,1.818-5.302c1.213-1.277,2.777-1.916,4.695-1.916      c1.255,0,2.387,0.3,3.395,0.899c1.009,0.601,1.777,1.437,2.306,2.51c0.529,1.073,0.794,2.29,0.794,3.65      c0,1.38-0.279,2.613-0.836,3.702s-1.345,1.912-2.365,2.473c-1.021,0.56-2.121,0.839-3.303,0.839      c-1.28,0-2.425-0.309-3.433-0.928c-1.008-0.618-1.772-1.462-2.292-2.532C327.576,233.742,327.316,232.61,327.316,231.417z       M329.172,231.444c0,1.64,0.441,2.931,1.322,3.874c0.882,0.942,1.987,1.414,3.316,1.414c1.355,0,2.47-0.476,3.345-1.429      c0.875-0.952,1.313-2.304,1.313-4.054c0-1.107-0.188-2.073-0.562-2.899c-0.375-0.825-0.922-1.466-1.643-1.92      c-0.721-0.455-1.529-0.683-2.426-0.683c-1.274,0-2.37,0.438-3.289,1.313C329.632,227.937,329.172,229.397,329.172,231.444z"/>
				<path fill="#262425" d="M342.569,238.041V224.44h1.8v11.995h6.698v1.605H342.569z"/>
				<path fill="#262425" d="M355.631,238.041v-5.762l-5.241-7.839h2.189l2.681,4.101c0.495,0.767,0.956,1.534,1.383,2.301      c0.408-0.711,0.903-1.513,1.484-2.403l2.635-3.998h2.097l-5.427,7.839v5.762H355.631z"/>
				<path fill="#262425" d="M367.933,238.041v-11.996h-4.48v-1.604h10.78v1.604h-4.499v11.996H367.933z"/>
				<path fill="#262425" d="M376.116,238.041V224.44h9.834v1.604h-8.034v4.166h7.523v1.596h-7.523v4.629h8.35v1.605H376.116z"/>
				<path fill="#262425" d="M398.455,233.272l1.8,0.454c-0.377,1.479-1.057,2.605-2.036,3.382c-0.98,0.776-2.179,1.164-3.596,1.164      c-1.465,0-2.657-0.298-3.576-0.895c-0.918-0.598-1.617-1.462-2.097-2.594s-0.719-2.347-0.719-3.646      c0-1.416,0.271-2.652,0.812-3.706c0.541-1.055,1.312-1.855,2.311-2.403c0.998-0.547,2.098-0.821,3.298-0.821      c1.36,0,2.505,0.347,3.433,1.039c0.928,0.693,1.574,1.667,1.939,2.923l-1.772,0.417c-0.315-0.989-0.773-1.71-1.373-2.161      s-1.354-0.678-2.264-0.678c-1.045,0-1.919,0.251-2.621,0.752s-1.195,1.174-1.479,2.018c-0.284,0.845-0.427,1.715-0.427,2.611      c0,1.157,0.168,2.167,0.506,3.029c0.337,0.863,0.861,1.508,1.572,1.935s1.481,0.64,2.31,0.64c1.009,0,1.862-0.29,2.561-0.872      C397.734,235.279,398.208,234.417,398.455,233.272z"/>
				<path fill="#262425" d="M402.528,238.041V224.44h1.8v5.585h7.069v-5.585h1.8v13.601h-1.8v-6.411h-7.069v6.411H402.528z"/>
				<path fill="#262425" d="M416.176,238.041V224.44h1.846l7.145,10.678V224.44h1.725v13.601h-1.846l-7.144-10.688v10.688H416.176z"/>
				<path fill="#262425" d="M430.221,238.041V224.44h1.801v13.601H430.221z"/>
				<path fill="#262425" d="M445.502,236.584c0.834,0.575,1.604,0.996,2.31,1.262l-0.528,1.253c-0.978-0.353-1.952-0.909-2.923-1.67      c-1.008,0.563-2.121,0.844-3.34,0.844c-1.23,0-2.347-0.297-3.349-0.891s-1.774-1.429-2.315-2.505s-0.812-2.288-0.812-3.637      c0-1.342,0.272-2.563,0.816-3.664s1.318-1.939,2.324-2.515c1.005-0.575,2.129-0.862,3.372-0.862      c1.256,0,2.388,0.298,3.396,0.896c1.008,0.597,1.776,1.432,2.306,2.505c0.528,1.072,0.793,2.283,0.793,3.632      c0,1.119-0.17,2.126-0.511,3.02C446.701,235.145,446.188,235.923,445.502,236.584z M441.54,234.283      c1.039,0.291,1.896,0.724,2.569,1.299c1.059-0.965,1.587-2.415,1.587-4.351c0-1.101-0.188-2.063-0.562-2.886      c-0.374-0.822-0.922-1.461-1.642-1.915c-0.721-0.455-1.529-0.683-2.427-0.683c-1.342,0-2.455,0.46-3.34,1.378      c-0.884,0.919-1.326,2.29-1.326,4.114c0,1.77,0.438,3.127,1.313,4.073s1.993,1.419,3.354,1.419c0.644,0,1.25-0.12,1.818-0.361      c-0.563-0.365-1.156-0.625-1.781-0.779L441.54,234.283z"/>
				<path fill="#262425" d="M458.897,224.44h1.8v7.857c0,1.367-0.154,2.453-0.464,3.257s-0.867,1.458-1.675,1.962      c-0.807,0.504-1.866,0.756-3.177,0.756c-1.274,0-2.316-0.22-3.127-0.658c-0.811-0.439-1.389-1.075-1.734-1.906      c-0.347-0.832-0.52-1.969-0.52-3.41v-7.857h1.799v7.849c0,1.182,0.11,2.052,0.33,2.611c0.219,0.56,0.597,0.991,1.132,1.294      c0.534,0.304,1.188,0.455,1.962,0.455c1.323,0,2.267-0.3,2.83-0.9c0.563-0.6,0.844-1.753,0.844-3.46V224.44z"/>
				<path fill="#262425" d="M463.731,238.041V224.44h9.834v1.604h-8.034v4.166h7.523v1.596h-7.523v4.629h8.35v1.605H463.731z"/>
				<path fill="#262425" d="M225.966,266.041V252.44h5.13c0.903,0,1.592,0.043,2.069,0.13c0.668,0.111,1.228,0.323,1.679,0.636      c0.451,0.312,0.815,0.75,1.09,1.313c0.275,0.563,0.413,1.182,0.413,1.855c0,1.156-0.368,2.135-1.104,2.937      c-0.736,0.801-2.066,1.201-3.989,1.201h-3.488v5.529H225.966z M227.766,258.906h3.516c1.163,0,1.988-0.216,2.477-0.649      c0.488-0.433,0.733-1.042,0.733-1.827c0-0.569-0.144-1.057-0.431-1.461c-0.288-0.405-0.667-0.673-1.137-0.803      c-0.303-0.08-0.863-0.121-1.679-0.121h-3.479V258.906z"/>
				<path fill="#262425" d="M238.667,266.041V252.44h6.03c1.212,0,2.134,0.122,2.765,0.366c0.631,0.244,1.135,0.676,1.512,1.294      c0.377,0.619,0.566,1.303,0.566,2.051c0,0.965-0.313,1.778-0.937,2.439c-0.625,0.662-1.59,1.083-2.895,1.262      c0.476,0.229,0.838,0.455,1.085,0.678c0.525,0.482,1.023,1.085,1.494,1.809l2.366,3.702h-2.264l-1.8-2.83      c-0.526-0.816-0.959-1.44-1.299-1.874c-0.34-0.433-0.645-0.735-0.914-0.909c-0.27-0.173-0.543-0.293-0.821-0.361      c-0.204-0.043-0.538-0.065-1.002-0.065h-2.087v6.04H238.667z M240.467,258.442h3.869c0.822,0,1.466-0.085,1.93-0.255      s0.816-0.442,1.058-0.816s0.362-0.78,0.362-1.22c0-0.644-0.233-1.172-0.701-1.587c-0.467-0.414-1.205-0.621-2.212-0.621h-4.305      V258.442z"/>
				<path fill="#262425" d="M252.667,266.041V252.44h1.8v13.601H252.667z"/>
				<path fill="#262425" d="M261.526,266.041l-5.27-13.601h1.948l3.535,9.88c0.284,0.792,0.522,1.534,0.714,2.227      c0.21-0.742,0.455-1.484,0.733-2.227l3.674-9.88h1.837l-5.325,13.601H261.526z"/>
				<path fill="#262425" d="M270.349,266.041V252.44h9.834v1.604h-8.034v4.166h7.524v1.596h-7.524v4.629h8.35v1.605H270.349z       M274.06,251.605l1.234-2.598h2.189l-2.041,2.598H274.06z"/>
				<path fill="#262425" d="M283.022,266.041V252.44h9.834v1.604h-8.034v4.166h7.524v1.596h-7.524v4.629h8.35v1.605H283.022z"/>
				<path fill="#262425" d="M300.937,266.041V252.44h4.685c1.058,0,1.865,0.064,2.421,0.194c0.779,0.18,1.444,0.505,1.994,0.975      c0.718,0.606,1.254,1.381,1.61,2.324c0.355,0.942,0.533,2.021,0.533,3.232c0,1.033-0.12,1.948-0.362,2.746      c-0.24,0.798-0.55,1.458-0.928,1.981c-0.377,0.522-0.79,0.934-1.238,1.233s-0.989,0.527-1.623,0.682      c-0.635,0.155-1.362,0.232-2.185,0.232H300.937z M302.736,264.436h2.904c0.897,0,1.6-0.083,2.111-0.25      c0.51-0.167,0.917-0.402,1.22-0.705c0.427-0.427,0.759-1.001,0.997-1.721c0.238-0.721,0.357-1.595,0.357-2.621      c0-1.423-0.233-2.516-0.7-3.279c-0.468-0.765-1.035-1.276-1.703-1.536c-0.482-0.186-1.258-0.278-2.328-0.278h-2.857V264.436z"/>
				<path fill="#262425" d="M314.694,266.041V252.44h9.834v1.604h-8.034v4.166h7.523v1.596h-7.523v4.629h8.35v1.605H314.694z"/>
				<path fill="#262425" d="M335.727,266.041v-11.996h-4.48v-1.604h10.78v1.604h-4.499v11.996H335.727z"/>
				<path fill="#262425" d="M352.797,252.44h1.8v7.857c0,1.367-0.154,2.453-0.464,3.257s-0.867,1.458-1.675,1.962      c-0.807,0.504-1.866,0.756-3.177,0.756c-1.274,0-2.316-0.22-3.127-0.658c-0.811-0.439-1.389-1.075-1.734-1.906      c-0.347-0.832-0.52-1.969-0.52-3.41v-7.857h1.799v7.849c0,1.182,0.11,2.052,0.33,2.611c0.219,0.56,0.597,0.991,1.132,1.294      c0.534,0.304,1.188,0.455,1.962,0.455c1.323,0,2.267-0.3,2.83-0.9c0.563-0.6,0.844-1.753,0.844-3.46V252.44z"/>
				<path fill="#262425" d="M357.574,266.041V252.44h1.846l7.145,10.678V252.44h1.725v13.601h-1.846l-7.144-10.688v10.688H357.574z"/>
				<path fill="#262425" d="M371.62,266.041V252.44h1.801v13.601H371.62z"/>
				<path fill="#262425" d="M375.98,261.671l1.697-0.148c0.081,0.681,0.268,1.239,0.562,1.675c0.294,0.437,0.75,0.789,1.368,1.058      c0.619,0.27,1.314,0.403,2.088,0.403c0.687,0,1.293-0.102,1.818-0.306s0.917-0.484,1.174-0.84      c0.256-0.355,0.385-0.743,0.385-1.164c0-0.427-0.124-0.8-0.371-1.118s-0.655-0.586-1.225-0.803      c-0.365-0.142-1.172-0.363-2.422-0.663c-1.249-0.3-2.124-0.583-2.625-0.849c-0.649-0.34-1.134-0.763-1.452-1.267      s-0.478-1.068-0.478-1.693c0-0.687,0.195-1.328,0.584-1.925c0.391-0.597,0.959-1.05,1.707-1.359      c0.749-0.309,1.581-0.464,2.496-0.464c1.008,0,1.897,0.163,2.667,0.487c0.771,0.325,1.362,0.803,1.776,1.434      c0.415,0.631,0.638,1.345,0.668,2.143l-1.725,0.13c-0.094-0.859-0.407-1.509-0.942-1.948c-0.535-0.438-1.325-0.658-2.37-0.658      c-1.089,0-1.882,0.199-2.38,0.599c-0.498,0.398-0.747,0.88-0.747,1.442c0,0.488,0.177,0.891,0.529,1.206      c0.347,0.315,1.251,0.639,2.714,0.97c1.462,0.33,2.466,0.62,3.011,0.867c0.791,0.365,1.376,0.827,1.753,1.387      s0.565,1.205,0.565,1.935c0,0.724-0.207,1.405-0.621,2.046c-0.414,0.64-1.01,1.138-1.786,1.493s-1.649,0.533-2.62,0.533      c-1.231,0-2.263-0.18-3.095-0.538s-1.484-0.898-1.957-1.618C376.254,263.396,376.005,262.58,375.98,261.671z"/>
			</g>
		</g>
		<g>
			<polygon fill="#12264E" points="132.25,119.25 138,122.75 138,177.75 132.25,180.75 479.125,180.75 472.375,176.75      472.375,123.083 479.125,119.25    "/>
			<g>
				<path fill="#FCFCFC" d="M187.101,153.861l3.705,6.01l-0.439,0.439c-0.11-0.018-0.206-0.031-0.288-0.041      c-0.082-0.009-0.197-0.014-0.343-0.014c-0.11,0-1.007,0.426-2.689,1.275c-1.684,0.852-3.518,1.602-5.502,2.251      c-1.985,0.649-4.048,0.974-6.188,0.974c-2.415,0-4.689-0.324-6.82-0.974c-2.132-0.649-4.053-1.633-5.763-2.95      c-1.711-1.317-3.037-2.927-3.979-4.83c-0.942-1.902-1.413-4.08-1.413-6.531s0.471-4.625,1.413-6.518s2.255-3.494,3.938-4.803      c1.683-1.308,3.599-2.287,5.749-2.937c2.15-0.649,4.441-0.974,6.875-0.974c2.909,0,6,0.467,9.276,1.4      c0.933,0.274,1.82,0.581,2.662,0.919c0.841,0.339,1.281,0.508,1.317,0.508c0.165,0,0.43-0.247,0.796-0.741l0.851,0.686      l-4.391,6.833l-0.577-0.384c0-0.091-0.037-0.338-0.109-0.741c-0.165-0.805-1.35-1.605-3.554-2.401      c-2.205-0.795-4.295-1.193-6.271-1.193c-1.629,0-3.143,0.224-4.542,0.672c-1.4,0.448-2.653,1.111-3.76,1.989      c-1.107,0.878-1.967,1.962-2.58,3.252c-0.613,1.29-0.919,2.712-0.919,4.267c0,2.104,0.53,3.929,1.592,5.475      c1.061,1.546,2.497,2.727,4.309,3.541c1.811,0.813,3.777,1.222,5.9,1.222c1.518,0,3.165-0.229,4.939-0.687      c1.774-0.458,3.261-1.043,4.46-1.757c1.198-0.713,1.797-1.417,1.797-2.113c0-0.165-0.083-0.394-0.247-0.686L187.101,153.861z"/>
				<path fill="#FCFCFC" d="M228.54,133.169v7.547h-1.015c0-0.823-0.714-1.235-2.141-1.235h-18.223v7.026h11.032      c0.823,0,1.422-0.133,1.798-0.398c0.375-0.265,0.563-0.792,0.563-1.578h1.015v8.892h-1.015c0-0.823-0.192-1.367-0.576-1.633      c-0.384-0.265-0.979-0.398-1.784-0.398h-11.032v7.821h18.771c0.585,0,1.052-0.133,1.399-0.398      c0.348-0.265,0.521-0.626,0.521-1.084h1.016v7.932h-1.016c0-0.531-0.156-0.869-0.466-1.016      c-0.312-0.146-0.796-0.219-1.455-0.219h-26.181v-1.016c0.274,0,0.512-0.082,0.713-0.247s0.302-0.421,0.302-0.769V136.6      c0-0.33-0.096-0.581-0.289-0.755c-0.192-0.173-0.435-0.261-0.727-0.261v-0.988h25.632c1.427,0,2.141-0.476,2.141-1.427H228.54z"/>
				<path fill="#FCFCFC" d="M245.83,164.428h-8.315v-1.016c0.713,0,1.07-0.338,1.07-1.016V136.6c0-0.33-0.101-0.581-0.302-0.755      c-0.202-0.173-0.458-0.261-0.769-0.261v-0.988h9.633v0.988c-0.312,0-0.467,0.192-0.467,0.577c0,0.311,0.375,0.833,1.125,1.564      l16.137,16.933V136.6c0-0.677-0.485-1.016-1.455-1.016v-0.988h8.48v0.988c-0.311,0-0.567,0.092-0.769,0.274      c-0.201,0.183-0.302,0.43-0.302,0.741v25.797c0,0.678,0.357,1.016,1.07,1.016v1.016h-9.111v-1.016      c0.494,0,0.741-0.165,0.741-0.494c0-0.274-0.302-0.723-0.906-1.345l-17.152-18.058v18.881c0,0.678,0.43,1.016,1.29,1.016      V164.428z"/>
				<path fill="#FCFCFC" d="M296.463,139.811v22.586c0,0.678,0.412,1.016,1.235,1.016v1.016h-8.645v-1.016      c0.256,0,0.489-0.087,0.7-0.262c0.21-0.173,0.316-0.425,0.316-0.754v-22.586h-9.276c-0.403,0-0.746,0.105-1.029,0.315      c-0.284,0.21-0.425,0.554-0.425,1.029h-1.016v-7.986h1.016c0,0.476,0.142,0.833,0.425,1.07c0.284,0.238,0.626,0.357,1.029,0.357      h24.946c0.402,0,0.75-0.119,1.042-0.357c0.293-0.237,0.439-0.594,0.439-1.07h0.988v7.986h-0.988      c0-0.494-0.146-0.841-0.439-1.043c-0.293-0.201-0.641-0.302-1.042-0.302H296.463z"/>
				<path fill="#FCFCFC" d="M314.987,135.584v-0.988h19.193c7.934,0,11.9,2.937,11.9,8.809c0,2.379-0.696,4.254-2.086,5.626      c-1.391,1.373-3.385,2.306-5.982,2.799l7.464,10.786c0.348,0.53,0.988,0.796,1.922,0.796v1.016h-10.512v-1.016      c0.312,0,0.595-0.06,0.852-0.179c0.256-0.118,0.384-0.261,0.384-0.425c0-0.201-0.302-0.77-0.905-1.702l-6.175-8.809h-8.041      v10.099c0,0.678,0.558,1.016,1.674,1.016v1.016h-9.688v-1.016c1.079,0,1.619-0.338,1.619-1.016V136.6      C316.606,135.923,316.066,135.584,314.987,135.584z M323.001,139.481v8.371h9.715c4.646,0,6.971-1.409,6.971-4.227      c0-2.762-2.324-4.144-6.971-4.144H323.001z"/>
				<path fill="#FCFCFC" d="M360.214,164.428h-7.986v-1.016c0.677-0.073,1.336-0.805,1.977-2.195l10.4-22.038      c0.659-1.317,0.988-2.141,0.988-2.47c0-0.585-0.411-0.961-1.234-1.125v-0.988h9.495v0.988c-0.787,0.183-1.18,0.559-1.18,1.125      c0,0.366,0.265,1.061,0.795,2.085l11.691,23.162c0.292,0.604,0.915,1.089,1.866,1.455v1.016h-9.907v-1.016      c0.183,0,0.38-0.06,0.59-0.179c0.21-0.118,0.315-0.278,0.315-0.479c0-0.422-0.146-0.934-0.438-1.537l-2.141-4.145h-13.722      l-2.031,3.979c-0.366,0.878-0.549,1.464-0.549,1.757c0,0.402,0.356,0.604,1.07,0.604V164.428z M368.694,142.28l-5.27,10.566      h9.989L368.694,142.28z"/>
				<path fill="#FCFCFC" d="M421.798,165.662h-0.988c0-0.531-0.155-0.869-0.467-1.016c-0.311-0.146-0.796-0.219-1.454-0.219h-26.758      v-1.016c1.135,0,1.702-0.338,1.702-1.016V136.6c0-0.677-0.567-1.016-1.702-1.016v-0.988h9.66v0.988      c-1.043,0-1.563,0.339-1.563,1.016v22.613h18.661c0.585,0,1.052-0.133,1.399-0.398c0.348-0.265,0.521-0.626,0.521-1.084h0.988      V165.662z"/>
				<path fill="#FCFCFC" d="M456.486,133.169v7.547h-1.016c0-0.823-0.713-1.235-2.141-1.235h-18.222v7.026h11.032      c0.823,0,1.422-0.133,1.797-0.398s0.563-0.792,0.563-1.578h1.016v8.892H448.5c0-0.823-0.191-1.367-0.576-1.633      c-0.384-0.265-0.979-0.398-1.783-0.398h-11.032v7.821h18.771c0.586,0,1.053-0.133,1.4-0.398      c0.347-0.265,0.521-0.626,0.521-1.084h1.015v7.932h-1.015c0-0.531-0.156-0.869-0.467-1.016      c-0.312-0.146-0.796-0.219-1.455-0.219h-26.181v-1.016c0.274,0,0.512-0.082,0.714-0.247c0.201-0.165,0.302-0.421,0.302-0.769      V136.6c0-0.33-0.097-0.581-0.288-0.755c-0.192-0.173-0.436-0.261-0.728-0.261v-0.988h25.632c1.428,0,2.141-0.476,2.141-1.427      H456.486z"/>
			</g>
		</g>
	</g>
</g>
</svg>